<svg id="Layer_1" data-name="Layer 1" xmlns="http://www.w3.org/2000/svg" viewBox="0 0 270.09 245.24"><defs><style>.cls-1{fill:#009d06;}</style></defs><path class="cls-1" d="M90.65.14a49.74,49.74,0,0,0-10.9.6C69.05,3.44,58.45,13,52.55,25c-1.9,4.1-3.5,8-3.5,8.8a32.78,32.78,0,0,1-1,5c-1,3.7-1,3.7-7.4,4.1-4.8.3-8.2,1.3-13.9,4.1-24.5,12.1-34.2,44.9-20.5,69.8l3.1,5.7-3.6,7.3C1.25,138.94.15,144,.05,154c0,8.4,3.1,19.9,7.3,26.7,7.8,12.8,22.5,22,34.8,22H47l1.1,4.2c2.4,9.5,4.4,14.1,8.2,19.8a44.27,44.27,0,0,0,17.8,15.9c4.7,2.2,6.9,2.6,14.5,2.6,8-.1,9.7-.4,15-3,10.9-5.5,18.8-15.2,23.7-29.2l2.3-6.8v-166l-2.3-7.5C121.25,13.74,107.05,1,90.65.14Zm-78.3,86.7c1.4-15.6,14.1-29.7,28.7-32,4.7-.8,12.4-.1,16.3,1.4,1.5.6,1.7,0,1.7-6.1,0-21.2,12.9-37.9,29.3-38.3a15.29,15.29,0,0,1,5.8.9c1.8,1,1.9,2.5,1.9,36.8L96,85.15a11.15,11.15,0,0,0-7.49,7.67l-8.21-.28-8.7-.3.22-7.88a11.08,11.08,0,0,0,6.57-14.24,11,11,0,0,0-3.12-4.53c-1.71-1.89-4.24-2.85-7.57-2.85a10.12,10.12,0,0,0-9.21,5.45,11.09,11.09,0,0,0,3.7,15.24,10.54,10.54,0,0,0,1.68.84l.23,8.47H11.75Zm35.63,42A11.09,11.09,0,0,0,67,128.15l1.31-1.41h49.7v57l-16.91-.45a5,5,0,0,1-.91-.33,11.11,11.11,0,1,0,0,8.4,3.2,3.2,0,0,1,.43-.17l16.87.05-.2,7.6a34.89,34.89,0,0,1-2.7,13.9c-10.8,26.6-38.4,28.1-51.1,2.8l-3.5-7.1v-51l21.28.08v-.05a11.1,11.1,0,1,0-.46-7.69H53.05l-.2,20.2-.3,20.3-6.4.3a29.09,29.09,0,0,1-11.3-1.5c-7.2-2.5-15.1-10.1-19-18.1-3.1-6.3-3.3-7.3-3.3-17.2,0-9.2.4-11.2,2.7-16.2a46.28,46.28,0,0,1,6.8-10.2l4.3-4.6-4.2-4.6c-4.3-4.6-9.1-13.4-9.1-16.7,0-1.6.9-1.8,7.8-1.5l7.7.3.3,26.1.2,26a11.09,11.09,0,0,0-4.3,18.47,7.52,7.52,0,0,0,1.3,1.09,10.77,10.77,0,0,0,3.35,1.64,9.46,9.46,0,0,0,6.75-.16,11.1,11.1,0,0,0-.08-21L36.26,127l.3-26.7,26.2-.3,26-.2a11.1,11.1,0,1,0,14.29-14.36V51.64c0-26.8.3-34,1.3-33.7a24.75,24.75,0,0,1,4.7,5.1,56.16,56.16,0,0,1,6,10.9c2.5,6.3,2.5,6.4,2.8,45.5l.3,39.3H68.45l-1.83-1.9a11.09,11.09,0,0,0-18.64,12Z" transform="translate(0 0)"/><path class="cls-1" d="M263.85,128.44l-3.2-5.9,3.2-5.7a53.39,53.39,0,0,0-.3-50.6c-6.9-12.4-21.1-22.2-33.8-23.4-6.7-.7-6.5-.4-9.6-10.7-3.8-12.8-12.4-23.5-23.2-29C190.65,0,180-1,172.85,1c-11.2,3.2-22.3,13-27.5,24.4s-5.4,12.8-5.1,100.6l.3,81.2,2.6,6.6c5.5,14.3,12.3,22.5,23.1,28.1,5.7,2.9,7.1,3.2,15.3,3.3,7.8,0,9.8-.4,14.8-2.7,11.5-5.4,22.9-20.5,25.2-33.3,1-5.5,2.1-6.5,7.1-6.5,4.8,0,14.2-3.1,18.9-6.3C269.45,181.74,276.45,152.24,263.85,128.44Zm-96.61,10.31a11.1,11.1,0,0,0-7,8.14,7.24,7.24,0,0,0,.2,5.28,11.1,11.1,0,0,0,6.23,7.15l.34.32v34c0,20-.4,34.1-.9,34.1-1.6,0-7.1-7.7-10.4-14.7l-3.2-6.8-.3-39.8-.3-39.7h49.5l.06.05a11.1,11.1,0,1,0-.2-8.05H152.05l.2-28.3.3-28.2v.1l17.28.18c.16.09.32.18.47.28a11.1,11.1,0,1,0-.42-8.8l-17.27.24h-.06l.1-6.5c.2-15.8,9.9-31.1,22.2-35.1,4.2-1.3,13.4-.4,17.8,1.9,5,2.6,10.5,8.5,14.1,15.4l2.8,5.3V88.11L189,88.29v.08a11.1,11.1,0,1,0,0,7.77l.41-.4h27.65V76.84c0-10.4.3-19.6.6-20.5.5-1.2,2.1-1.6,7.3-1.6,12.3,0,24,8.1,29.9,20.8,2.4,5,2.7,6.9,2.7,16.2s-.3,11.2-2.7,16.2a46.51,46.51,0,0,1-6.8,10.2l-4.3,4.6,4.3,4.6c4.4,4.8,9.5,14.8,8.6,17-.4,1-2.6,1.4-7.5,1.4-6.3,0-6.9-.2-7.5-2.3-.3-1.2-.6-13-.6-26.3V93l1-1a11.11,11.11,0,1,0-8,.11l-.2,26.39-.3,26.7-25.8.3-25.7.2-.51-.51A11.1,11.1,0,0,0,167.24,138.75Zm90.51,19.89c-1.1,12.4-9.6,24.6-20.8,29.6-5.4,2.4-7,2.7-14.2,2.3-4.5-.3-8.9-.8-9.8-1.2-1.4-.6-1.7.5-2.1,8.6-.4,7.5-1.1,10.6-3.5,15.9-3.6,7.8-9.1,14.3-14.6,17.1-4.9,2.5-13.6,3.5-16.5,1.9-2.2-1.2-2.2-1.3-2.2-36.8v-35.6l.69-.79a11.1,11.1,0,0,0,6.87-6.79l7.94.18,9,.2-.28,8c-.08.15-.16.3-.25.45a11.11,11.11,0,0,0-2.61,18.73,7.63,7.63,0,0,0,1.7,1.16,11.12,11.12,0,0,0,8.49.93,5.94,5.94,0,0,0,2.74-1.23,11.09,11.09,0,0,0-1.75-19.73.68.68,0,0,0-.07-.2v-8.56h-.47v0h52.3Z" transform="translate(0 0)"/></svg>